<mxfile host="app.diagrams.net" modified="2024-01-11T11:06:10.412Z" agent="Mozilla/5.0 (Windows NT 10.0; Win64; x64) AppleWebKit/537.36 (KHTML, like Gecko) Chrome/120.0.0.0 Safari/537.36" etag="589MxnFaLvdAiho15g2u" version="22.1.18" type="github">
  <diagram name="Page-1" id="e3a06f82-3646-2815-327d-82caf3d4e204">
    <mxGraphModel dx="1819" dy="2242" grid="1" gridSize="10" guides="1" tooltips="1" connect="1" arrows="1" fold="1" page="1" pageScale="1.5" pageWidth="1169" pageHeight="826" background="none" math="0" shadow="0">
      <root>
        <mxCell id="0" style=";html=1;" />
        <mxCell id="1" style=";html=1;" parent="0" />
        <mxCell id="6a7d8f32e03d9370-61" value="Outside Networks" style="whiteSpace=wrap;html=1;fillColor=#f8cecc;fontSize=14;strokeColor=none;verticalAlign=top;" parent="1" vertex="1">
          <mxGeometry x="1084" y="300" width="493" height="360" as="geometry" />
        </mxCell>
        <mxCell id="6a7d8f32e03d9370-60" value="Enterprise cloud" style="whiteSpace=wrap;html=1;fillColor=#d5e8d4;fontSize=14;strokeColor=none;verticalAlign=top;" parent="1" vertex="1">
          <mxGeometry x="937" y="764" width="602" height="374" as="geometry" />
        </mxCell>
        <mxCell id="6a7d8f32e03d9370-59" value="Citrix XenApp Server Farm&lt;div&gt;with firewalls&lt;/div&gt;" style="whiteSpace=wrap;html=1;fillColor=#EDEDED;fontSize=14;strokeColor=none;verticalAlign=top;" parent="1" vertex="1">
          <mxGeometry x="1452" y="50" width="280" height="1010" as="geometry" />
        </mxCell>
        <mxCell id="6a7d8f32e03d9370-58" value="Local Network" style="whiteSpace=wrap;html=1;fillColor=#dae8fc;fontSize=14;strokeColor=none;verticalAlign=top;" parent="1" vertex="1">
          <mxGeometry x="50" y="100" width="760" height="640" as="geometry" />
        </mxCell>
        <mxCell id="6a7d8f32e03d9370-57" value="Enterprise Networks" style="whiteSpace=wrap;html=1;fillColor=#FFD470;gradientColor=none;fontSize=14;strokeColor=none;verticalAlign=top;" parent="1" vertex="1">
          <mxGeometry x="1110" y="130" width="308" height="680" as="geometry" />
        </mxCell>
        <mxCell id="6a7d8f32e03d9370-62" value="Citrix Network Architecture" style="text;strokeColor=none;fillColor=none;html=1;fontSize=24;fontStyle=1;verticalAlign=middle;align=center;" parent="1" vertex="1">
          <mxGeometry x="499" y="30" width="861" height="40" as="geometry" />
        </mxCell>
        <mxCell id="P7gEYuGDoSCaP3gMuOwe-1" value="Webserver&lt;br&gt;&amp;nbsp;(Uvicorn running on&amp;nbsp;http://0.0.0.0:8000)" style="verticalLabelPosition=top;aspect=fixed;html=1;verticalAlign=bottom;strokeColor=none;shape=mxgraph.citrix.cache_server;fillColor=#66B2FF;gradientColor=#0066CC;fontSize=14;labelPosition=center;align=center;" vertex="1" parent="1">
          <mxGeometry x="428" y="254.5" width="71" height="97.5" as="geometry" />
        </mxCell>
        <mxCell id="P7gEYuGDoSCaP3gMuOwe-2" style="edgeStyle=none;rounded=0;html=1;startSize=10;endSize=10;jettySize=auto;orthogonalLoop=1;fontSize=14;endArrow=none;endFill=0;strokeWidth=2;" edge="1" parent="1" source="P7gEYuGDoSCaP3gMuOwe-5" target="P7gEYuGDoSCaP3gMuOwe-8">
          <mxGeometry relative="1" as="geometry" />
        </mxCell>
        <mxCell id="P7gEYuGDoSCaP3gMuOwe-3" style="edgeStyle=none;rounded=0;html=1;startSize=10;endSize=10;jettySize=auto;orthogonalLoop=1;fontSize=14;endArrow=none;endFill=0;strokeWidth=2;" edge="1" parent="1" source="P7gEYuGDoSCaP3gMuOwe-5" target="P7gEYuGDoSCaP3gMuOwe-7">
          <mxGeometry relative="1" as="geometry" />
        </mxCell>
        <mxCell id="P7gEYuGDoSCaP3gMuOwe-4" style="edgeStyle=none;rounded=0;html=1;startSize=10;endSize=10;jettySize=auto;orthogonalLoop=1;fontSize=14;endArrow=none;endFill=0;strokeWidth=2;" edge="1" parent="1" source="P7gEYuGDoSCaP3gMuOwe-5">
          <mxGeometry relative="1" as="geometry">
            <mxPoint x="1036" y="-55.67047713717693" as="targetPoint" />
          </mxGeometry>
        </mxCell>
        <mxCell id="P7gEYuGDoSCaP3gMuOwe-5" value="" style="verticalLabelPosition=bottom;aspect=fixed;html=1;verticalAlign=top;strokeColor=none;shape=mxgraph.citrix.switch;fillColor=#66B2FF;gradientColor=#0066CC;fontSize=14;" vertex="1" parent="1">
          <mxGeometry x="774" y="-80.5" width="92" height="41.5" as="geometry" />
        </mxCell>
        <mxCell id="P7gEYuGDoSCaP3gMuOwe-6" value="Client" style="verticalLabelPosition=top;aspect=fixed;html=1;verticalAlign=bottom;strokeColor=none;shape=mxgraph.citrix.thin_client;fillColor=#66B2FF;gradientColor=#0066CC;fontSize=14;labelPosition=center;align=center;" vertex="1" parent="1">
          <mxGeometry x="1029" y="-95.25" width="71" height="71" as="geometry" />
        </mxCell>
        <mxCell id="P7gEYuGDoSCaP3gMuOwe-7" value="Client" style="verticalLabelPosition=top;aspect=fixed;html=1;verticalAlign=bottom;strokeColor=none;shape=mxgraph.citrix.thin_client;fillColor=#66B2FF;gradientColor=#0066CC;fontSize=14;labelPosition=center;align=center;" vertex="1" parent="1">
          <mxGeometry x="958" y="-214.5" width="71" height="71" as="geometry" />
        </mxCell>
        <mxCell id="P7gEYuGDoSCaP3gMuOwe-8" value="Client" style="verticalLabelPosition=top;aspect=fixed;html=1;verticalAlign=bottom;strokeColor=none;shape=mxgraph.citrix.thin_client;fillColor=#66B2FF;gradientColor=#0066CC;fontSize=14;labelPosition=center;align=center;" vertex="1" parent="1">
          <mxGeometry x="801" y="-260" width="71" height="71" as="geometry" />
        </mxCell>
        <mxCell id="P7gEYuGDoSCaP3gMuOwe-26" value="" style="whiteSpace=wrap;html=1;aspect=fixed;fontColor=none;labelBorderColor=none;labelBackgroundColor=none;noLabel=1;" vertex="1" parent="1">
          <mxGeometry x="415" y="272" width="80" height="80" as="geometry" />
        </mxCell>
        <mxCell id="P7gEYuGDoSCaP3gMuOwe-9" value="" style="verticalLabelPosition=bottom;aspect=fixed;html=1;verticalAlign=top;strokeColor=none;shape=mxgraph.citrix.firewall;fillColor=#66B2FF;gradientColor=#0066CC;fontSize=14;" vertex="1" parent="1">
          <mxGeometry x="340" y="-188.25" width="75" height="93" as="geometry" />
        </mxCell>
        <mxCell id="P7gEYuGDoSCaP3gMuOwe-10" value="" style="verticalLabelPosition=bottom;aspect=fixed;html=1;verticalAlign=top;strokeColor=none;shape=mxgraph.citrix.xenapp_server;fillColor=#66B2FF;gradientColor=#0066CC;fontSize=14;" vertex="1" parent="1">
          <mxGeometry x="1159.75" y="-160" width="76" height="89" as="geometry" />
        </mxCell>
        <mxCell id="P7gEYuGDoSCaP3gMuOwe-11" value="Python aplication&lt;br&gt;&amp;nbsp;Xri.py (visualize CNN&lt;br&gt;&amp;nbsp;model aplication)&amp;nbsp;" style="verticalLabelPosition=bottom;aspect=fixed;html=1;verticalAlign=top;strokeColor=none;shape=mxgraph.citrix.hq_enterprise;fillColor=#66B2FF;gradientColor=#0066CC;fontSize=14;" vertex="1" parent="1">
          <mxGeometry x="110" y="150" width="92" height="88" as="geometry" />
        </mxCell>
        <mxCell id="P7gEYuGDoSCaP3gMuOwe-12" value="" style="verticalLabelPosition=bottom;aspect=fixed;html=1;verticalAlign=top;strokeColor=none;shape=mxgraph.citrix.router;fillColor=#66B2FF;gradientColor=#0066CC;fontSize=14;" vertex="1" parent="1">
          <mxGeometry x="1677" y="-107.5" width="55" height="36.5" as="geometry" />
        </mxCell>
        <mxCell id="P7gEYuGDoSCaP3gMuOwe-14" value="Client" style="verticalLabelPosition=bottom;aspect=fixed;html=1;verticalAlign=top;strokeColor=none;shape=mxgraph.citrix.desktop;fillColor=#66B2FF;gradientColor=#0066CC;fontSize=14;" vertex="1" parent="1">
          <mxGeometry x="1348" y="-159.99999999999994" width="89" height="98" as="geometry" />
        </mxCell>
        <mxCell id="P7gEYuGDoSCaP3gMuOwe-15" value="DNS" style="verticalLabelPosition=bottom;aspect=fixed;html=1;verticalAlign=top;strokeColor=none;shape=mxgraph.citrix.chassis;fillColor=#66B2FF;gradientColor=#0066CC;fontSize=14;" vertex="1" parent="1">
          <mxGeometry x="1055" y="-450" width="137.5" height="177.5" as="geometry" />
        </mxCell>
        <mxCell id="P7gEYuGDoSCaP3gMuOwe-16" value="HTML templates&lt;br&gt;&amp;nbsp;(index.html, results.html)" style="verticalLabelPosition=bottom;aspect=fixed;html=1;verticalAlign=top;strokeColor=none;shape=mxgraph.citrix.hq_enterprise;fillColor=#66B2FF;gradientColor=#0066CC;fontSize=14;" vertex="1" parent="1">
          <mxGeometry x="103.73" y="360" width="98.27" height="94" as="geometry" />
        </mxCell>
        <mxCell id="P7gEYuGDoSCaP3gMuOwe-17" value="" style="endArrow=none;html=1;rounded=0;" edge="1" parent="1">
          <mxGeometry width="50" height="50" relative="1" as="geometry">
            <mxPoint x="850" y="100" as="sourcePoint" />
            <mxPoint x="900" y="50" as="targetPoint" />
          </mxGeometry>
        </mxCell>
        <mxCell id="P7gEYuGDoSCaP3gMuOwe-18" value="API (Fast Api)" style="verticalLabelPosition=bottom;aspect=fixed;html=1;verticalAlign=top;strokeColor=none;shape=mxgraph.citrix.router;fillColor=#66B2FF;gradientColor=#0066CC;fontSize=14;" vertex="1" parent="1">
          <mxGeometry x="250" y="280" width="70.07" height="46.5" as="geometry" />
        </mxCell>
        <mxCell id="P7gEYuGDoSCaP3gMuOwe-22" style="edgeStyle=none;rounded=0;html=1;startSize=10;endSize=10;jettySize=auto;orthogonalLoop=1;fontSize=14;endArrow=none;endFill=0;strokeWidth=2;" edge="1" parent="1" source="P7gEYuGDoSCaP3gMuOwe-18" target="P7gEYuGDoSCaP3gMuOwe-16">
          <mxGeometry relative="1" as="geometry">
            <mxPoint x="260" y="425" as="sourcePoint" />
            <mxPoint x="368" y="350" as="targetPoint" />
          </mxGeometry>
        </mxCell>
        <mxCell id="P7gEYuGDoSCaP3gMuOwe-24" style="edgeStyle=none;rounded=0;html=1;startSize=10;endSize=10;jettySize=auto;orthogonalLoop=1;fontSize=14;endArrow=none;endFill=0;strokeWidth=2;entryX=1.004;entryY=0.892;entryDx=0;entryDy=0;entryPerimeter=0;" edge="1" parent="1" source="P7gEYuGDoSCaP3gMuOwe-18" target="P7gEYuGDoSCaP3gMuOwe-11">
          <mxGeometry relative="1" as="geometry">
            <mxPoint x="260" y="280" as="sourcePoint" />
            <mxPoint x="230" y="250" as="targetPoint" />
          </mxGeometry>
        </mxCell>
        <mxCell id="P7gEYuGDoSCaP3gMuOwe-25" style="edgeStyle=none;rounded=0;html=1;startSize=10;endSize=10;jettySize=auto;orthogonalLoop=1;fontSize=14;endArrow=none;endFill=0;strokeWidth=2;" edge="1" parent="1" source="P7gEYuGDoSCaP3gMuOwe-1" target="P7gEYuGDoSCaP3gMuOwe-18">
          <mxGeometry relative="1" as="geometry">
            <mxPoint x="330" y="475" as="sourcePoint" />
            <mxPoint x="310" y="301" as="targetPoint" />
          </mxGeometry>
        </mxCell>
      </root>
    </mxGraphModel>
  </diagram>
</mxfile>
